<svg height="2574" width="720" xmlns="http://www.w3.org/2000/svg">
<rect height="2574" fill="#555" width="720"></rect>
<text fill="#7f7" font-family="Courier New" font-size="12" xml:space="preserve">
<tspan x="10" y="26">21 megabytes installed</tspan>
<tspan x="10" y="42"></tspan>
<tspan x="10" y="58">node_modules</tspan>
<tspan x="10" y="74">└─┬ autod@2.8.0 </tspan>
<tspan x="10" y="90">  ├─┬ babel-core@6.24.1 </tspan>
<tspan x="10" y="106">  │ ├─┬ babel-code-frame@6.22.0 </tspan>
<tspan x="10" y="122">  │ │ ├─┬ chalk@1.1.3 </tspan>
<tspan x="10" y="138">  │ │ │ ├── ansi-styles@2.2.1 </tspan>
<tspan x="10" y="154">  │ │ │ ├── escape-string-regexp@1.0.5 </tspan>
<tspan x="10" y="170">  │ │ │ ├─┬ has-ansi@2.0.0 </tspan>
<tspan x="10" y="186">  │ │ │ │ └── ansi-regex@2.1.1 </tspan>
<tspan x="10" y="202">  │ │ │ ├── strip-ansi@3.0.1 </tspan>
<tspan x="10" y="218">  │ │ │ └── supports-color@2.0.0 </tspan>
<tspan x="10" y="234">  │ │ ├── esutils@2.0.2 </tspan>
<tspan x="10" y="250">  │ │ └── js-tokens@3.0.1 </tspan>
<tspan x="10" y="266">  │ ├─┬ babel-generator@6.24.1 </tspan>
<tspan x="10" y="282">  │ │ ├─┬ detect-indent@4.0.0 </tspan>
<tspan x="10" y="298">  │ │ │ └─┬ repeating@2.0.1 </tspan>
<tspan x="10" y="314">  │ │ │   └─┬ is-finite@1.0.2 </tspan>
<tspan x="10" y="330">  │ │ │     └── number-is-nan@1.0.1 </tspan>
<tspan x="10" y="346">  │ │ ├── jsesc@1.3.0 </tspan>
<tspan x="10" y="362">  │ │ └── trim-right@1.0.1 </tspan>
<tspan x="10" y="378">  │ ├── babel-helpers@6.24.1 </tspan>
<tspan x="10" y="394">  │ ├── babel-messages@6.23.0 </tspan>
<tspan x="10" y="410">  │ ├─┬ babel-register@6.24.1 </tspan>
<tspan x="10" y="426">  │ │ ├── core-js@2.4.1 </tspan>
<tspan x="10" y="442">  │ │ ├─┬ home-or-tmp@2.0.0 </tspan>
<tspan x="10" y="458">  │ │ │ ├── os-homedir@1.0.2 </tspan>
<tspan x="10" y="474">  │ │ │ └── os-tmpdir@1.0.2 </tspan>
<tspan x="10" y="490">  │ │ ├─┬ mkdirp@0.5.1 </tspan>
<tspan x="10" y="506">  │ │ │ └── minimist@0.0.8 </tspan>
<tspan x="10" y="522">  │ │ └── source-map-support@0.4.14 </tspan>
<tspan x="10" y="538">  │ ├─┬ babel-runtime@6.23.0 </tspan>
<tspan x="10" y="554">  │ │ └── regenerator-runtime@0.10.3 </tspan>
<tspan x="10" y="570">  │ ├── babel-template@6.24.1 </tspan>
<tspan x="10" y="586">  │ ├─┬ babel-traverse@6.24.1 </tspan>
<tspan x="10" y="602">  │ │ ├── globals@9.17.0 </tspan>
<tspan x="10" y="618">  │ │ └─┬ invariant@2.2.2 </tspan>
<tspan x="10" y="634">  │ │   └── loose-envify@1.3.1 </tspan>
<tspan x="10" y="650">  │ ├─┬ babel-types@6.24.1 </tspan>
<tspan x="10" y="666">  │ │ └── to-fast-properties@1.0.2 </tspan>
<tspan x="10" y="682">  │ ├── babylon@6.16.1 </tspan>
<tspan x="10" y="698">  │ ├── convert-source-map@1.5.0 </tspan>
<tspan x="10" y="714">  │ ├── json5@0.5.1 </tspan>
<tspan x="10" y="730">  │ ├── lodash@4.17.4 </tspan>
<tspan x="10" y="746">  │ ├── path-is-absolute@1.0.1 </tspan>
<tspan x="10" y="762">  │ ├── private@0.1.7 </tspan>
<tspan x="10" y="778">  │ ├── slash@1.0.0 </tspan>
<tspan x="10" y="794">  │ └── source-map@0.5.6 </tspan>
<tspan x="10" y="810">  ├─┬ babel-preset-es2015@6.24.1 </tspan>
<tspan x="10" y="826">  │ ├── babel-plugin-check-es2015-constants@6.22.0 </tspan>
<tspan x="10" y="842">  │ ├── babel-plugin-transform-es2015-arrow-functions@6.22.0 </tspan>
<tspan x="10" y="858">  │ ├── babel-plugin-transform-es2015-block-scoped-functions@6.22.0 </tspan>
<tspan x="10" y="874">  │ ├── babel-plugin-transform-es2015-block-scoping@6.24.1 </tspan>
<tspan x="10" y="890">  │ ├─┬ babel-plugin-transform-es2015-classes@6.24.1 </tspan>
<tspan x="10" y="906">  │ │ ├── babel-helper-define-map@6.24.1 </tspan>
<tspan x="10" y="922">  │ │ ├── babel-helper-function-name@6.24.1 </tspan>
<tspan x="10" y="938">  │ │ ├── babel-helper-optimise-call-expression@6.24.1 </tspan>
<tspan x="10" y="954">  │ │ └── babel-helper-replace-supers@6.24.1 </tspan>
<tspan x="10" y="970">  │ ├── babel-plugin-transform-es2015-computed-properties@6.24.1 </tspan>
<tspan x="10" y="986">  │ ├── babel-plugin-transform-es2015-destructuring@6.23.0 </tspan>
<tspan x="10" y="1002">  │ ├── babel-plugin-transform-es2015-duplicate-keys@6.24.1 </tspan>
<tspan x="10" y="1018">  │ ├── babel-plugin-transform-es2015-for-of@6.23.0 </tspan>
<tspan x="10" y="1034">  │ ├── babel-plugin-transform-es2015-function-name@6.24.1 </tspan>
<tspan x="10" y="1050">  │ ├── babel-plugin-transform-es2015-literals@6.22.0 </tspan>
<tspan x="10" y="1066">  │ ├── babel-plugin-transform-es2015-modules-amd@6.24.1 </tspan>
<tspan x="10" y="1082">  │ ├─┬ babel-plugin-transform-es2015-modules-commonjs@6.24.1 </tspan>
<tspan x="10" y="1098">  │ │ └── babel-plugin-transform-strict-mode@6.24.1 </tspan>
<tspan x="10" y="1114">  │ ├─┬ babel-plugin-transform-es2015-modules-systemjs@6.24.1 </tspan>
<tspan x="10" y="1130">  │ │ └── babel-helper-hoist-variables@6.24.1 </tspan>
<tspan x="10" y="1146">  │ ├── babel-plugin-transform-es2015-modules-umd@6.24.1 </tspan>
<tspan x="10" y="1162">  │ ├── babel-plugin-transform-es2015-object-super@6.24.1 </tspan>
<tspan x="10" y="1178">  │ ├─┬ babel-plugin-transform-es2015-parameters@6.24.1 </tspan>
<tspan x="10" y="1194">  │ │ ├── babel-helper-call-delegate@6.24.1 </tspan>
<tspan x="10" y="1210">  │ │ └── babel-helper-get-function-arity@6.24.1 </tspan>
<tspan x="10" y="1226">  │ ├── babel-plugin-transform-es2015-shorthand-properties@6.24.1 </tspan>
<tspan x="10" y="1242">  │ ├── babel-plugin-transform-es2015-spread@6.22.0 </tspan>
<tspan x="10" y="1258">  │ ├─┬ babel-plugin-transform-es2015-sticky-regex@6.24.1 </tspan>
<tspan x="10" y="1274">  │ │ └── babel-helper-regex@6.24.1 </tspan>
<tspan x="10" y="1290">  │ ├── babel-plugin-transform-es2015-template-literals@6.22.0 </tspan>
<tspan x="10" y="1306">  │ ├── babel-plugin-transform-es2015-typeof-symbol@6.23.0 </tspan>
<tspan x="10" y="1322">  │ ├─┬ babel-plugin-transform-es2015-unicode-regex@6.24.1 </tspan>
<tspan x="10" y="1338">  │ │ └─┬ regexpu-core@2.0.0 </tspan>
<tspan x="10" y="1354">  │ │   ├── regenerate@1.3.2 </tspan>
<tspan x="10" y="1370">  │ │   ├── regjsgen@0.2.0 </tspan>
<tspan x="10" y="1386">  │ │   └─┬ regjsparser@0.1.5 </tspan>
<tspan x="10" y="1402">  │ │     └── jsesc@0.5.0 </tspan>
<tspan x="10" y="1418">  │ └─┬ babel-plugin-transform-regenerator@6.24.1 </tspan>
<tspan x="10" y="1434">  │   └── regenerator-transform@0.9.11 </tspan>
<tspan x="10" y="1450">  ├─┬ babel-preset-react@6.24.1 </tspan>
<tspan x="10" y="1466">  │ ├── babel-plugin-syntax-jsx@6.18.0 </tspan>
<tspan x="10" y="1482">  │ ├── babel-plugin-transform-react-display-name@6.23.0 </tspan>
<tspan x="10" y="1498">  │ ├─┬ babel-plugin-transform-react-jsx@6.24.1 </tspan>
<tspan x="10" y="1514">  │ │ └── babel-helper-builder-react-jsx@6.24.1 </tspan>
<tspan x="10" y="1530">  │ ├── babel-plugin-transform-react-jsx-self@6.22.0 </tspan>
<tspan x="10" y="1546">  │ ├── babel-plugin-transform-react-jsx-source@6.22.0 </tspan>
<tspan x="10" y="1562">  │ └─┬ babel-preset-flow@6.23.0 </tspan>
<tspan x="10" y="1578">  │   └─┬ babel-plugin-transform-flow-strip-types@6.22.0 </tspan>
<tspan x="10" y="1594">  │     └── babel-plugin-syntax-flow@6.18.0 </tspan>
<tspan x="10" y="1610">  ├─┬ babel-preset-stage-0@6.24.1 </tspan>
<tspan x="10" y="1626">  │ ├─┬ babel-plugin-transform-do-expressions@6.22.0 </tspan>
<tspan x="10" y="1642">  │ │ └── babel-plugin-syntax-do-expressions@6.13.0 </tspan>
<tspan x="10" y="1658">  │ ├─┬ babel-plugin-transform-function-bind@6.22.0 </tspan>
<tspan x="10" y="1674">  │ │ └── babel-plugin-syntax-function-bind@6.13.0 </tspan>
<tspan x="10" y="1690">  │ └─┬ babel-preset-stage-1@6.24.1 </tspan>
<tspan x="10" y="1706">  │   ├─┬ babel-plugin-transform-class-constructor-call@6.24.1 </tspan>
<tspan x="10" y="1722">  │   │ └── babel-plugin-syntax-class-constructor-call@6.18.0 </tspan>
<tspan x="10" y="1738">  │   ├─┬ babel-plugin-transform-export-extensions@6.22.0 </tspan>
<tspan x="10" y="1754">  │   │ └── babel-plugin-syntax-export-extensions@6.13.0 </tspan>
<tspan x="10" y="1770">  │   └─┬ babel-preset-stage-2@6.24.1 </tspan>
<tspan x="10" y="1786">  │     ├── babel-plugin-syntax-dynamic-import@6.18.0 </tspan>
<tspan x="10" y="1802">  │     ├─┬ babel-plugin-transform-class-properties@6.24.1 </tspan>
<tspan x="10" y="1818">  │     │ └── babel-plugin-syntax-class-properties@6.13.0 </tspan>
<tspan x="10" y="1834">  │     ├─┬ babel-plugin-transform-decorators@6.24.1 </tspan>
<tspan x="10" y="1850">  │     │ ├─┬ babel-helper-explode-class@6.24.1 </tspan>
<tspan x="10" y="1866">  │     │ │ └── babel-helper-bindify-decorators@6.24.1 </tspan>
<tspan x="10" y="1882">  │     │ └── babel-plugin-syntax-decorators@6.13.0 </tspan>
<tspan x="10" y="1898">  │     └─┬ babel-preset-stage-3@6.24.1 </tspan>
<tspan x="10" y="1914">  │       ├── babel-plugin-syntax-trailing-function-commas@6.22.0 </tspan>
<tspan x="10" y="1930">  │       ├─┬ babel-plugin-transform-async-generator-functions@6.24.1 </tspan>
<tspan x="10" y="1946">  │       │ ├── babel-helper-remap-async-to-generator@6.24.1 </tspan>
<tspan x="10" y="1962">  │       │ └── babel-plugin-syntax-async-generators@6.13.0 </tspan>
<tspan x="10" y="1978">  │       ├─┬ babel-plugin-transform-async-to-generator@6.24.1 </tspan>
<tspan x="10" y="1994">  │       │ └── babel-plugin-syntax-async-functions@6.13.0 </tspan>
<tspan x="10" y="2010">  │       ├─┬ babel-plugin-transform-exponentiation-operator@6.24.1 </tspan>
<tspan x="10" y="2026">  │       │ ├─┬ babel-helper-builder-binary-assignment-operator-visitor@6.24.1 </tspan>
<tspan x="10" y="2042">  │       │ │ └── babel-helper-explode-assignable-expression@6.24.1 </tspan>
<tspan x="10" y="2058">  │       │ └── babel-plugin-syntax-exponentiation-operator@6.13.0 </tspan>
<tspan x="10" y="2074">  │       └─┬ babel-plugin-transform-object-rest-spread@6.23.0 </tspan>
<tspan x="10" y="2090">  │         └── babel-plugin-syntax-object-rest-spread@6.13.0 </tspan>
<tspan x="10" y="2106">  ├── bagpipe@0.3.5 </tspan>
<tspan x="10" y="2122">  ├── colors@1.1.2 </tspan>
<tspan x="10" y="2138">  ├─┬ commander@2.9.0 </tspan>
<tspan x="10" y="2154">  │ └── graceful-readlink@1.0.1 </tspan>
<tspan x="10" y="2170">  ├── crequire@1.8.0 </tspan>
<tspan x="10" y="2186">  ├─┬ debug@2.6.3 </tspan>
<tspan x="10" y="2202">  │ └── ms@0.7.2 </tspan>
<tspan x="10" y="2218">  ├─┬ minimatch@3.0.3 </tspan>
<tspan x="10" y="2234">  │ └─┬ brace-expansion@1.1.7 </tspan>
<tspan x="10" y="2250">  │   ├── balanced-match@0.4.2 </tspan>
<tspan x="10" y="2266">  │   └── concat-map@0.0.1 </tspan>
<tspan x="10" y="2282">  ├── printable@0.0.3 </tspan>
<tspan x="10" y="2298">  ├── semver@5.3.0 </tspan>
<tspan x="10" y="2314">  └─┬ urllib@2.22.0 </tspan>
<tspan x="10" y="2330">    ├── any-promise@1.3.0 </tspan>
<tspan x="10" y="2346">    ├── content-type@1.0.2 </tspan>
<tspan x="10" y="2362">    ├─┬ default-user-agent@1.0.0 </tspan>
<tspan x="10" y="2378">    │ └─┬ os-name@1.0.3 </tspan>
<tspan x="10" y="2394">    │   ├─┬ osx-release@1.1.0 </tspan>
<tspan x="10" y="2410">    │   │ └── minimist@1.2.0 </tspan>
<tspan x="10" y="2426">    │   └── win-release@1.1.1 </tspan>
<tspan x="10" y="2442">    ├─┬ digest-header@0.0.1 </tspan>
<tspan x="10" y="2458">    │ └─┬ utility@0.1.11 </tspan>
<tspan x="10" y="2474">    │   └── address@1.0.1 </tspan>
<tspan x="10" y="2490">    ├── ee-first@1.1.1 </tspan>
<tspan x="10" y="2506">    ├── humanize-ms@1.2.0 </tspan>
<tspan x="10" y="2522">    ├── iconv-lite@0.4.15 </tspan>
<tspan x="10" y="2538">    ├── qs@6.4.0 </tspan>
<tspan x="10" y="2554">    └── statuses@1.3.1</tspan>
</text>
</svg>
